<?xml version="1.0" encoding="UTF-8" standalone="no"?>
<!DOCTYPE svg PUBLIC "-//W3C//DTD SVG 1.1//EN"
 "http://www.w3.org/Graphics/SVG/1.1/DTD/svg11.dtd">
<!-- Generated by graphviz version 2.30.1 (20180420.1509)
 -->
<!-- Title: G Pages: 1 -->
<svg width="288pt" height="487pt"
 viewBox="0.00 0.00 288.00 487.00" xmlns="http://www.w3.org/2000/svg" xmlns:xlink="http://www.w3.org/1999/xlink">
<g id="graph0" class="graph" transform="scale(1 1) rotate(0) translate(4 483)">
<title>G</title>
<polygon fill="white" stroke="white" points="-4,5 -4,-483 285,-483 285,5 -4,5"/>
<g id="clust1" class="cluster"><title>cluster_0</title>
<polygon fill="lightgrey" stroke="lightgrey" points="8,-64 8,-435 132,-435 132,-64 8,-64"/>
<text text-anchor="middle" x="70" y="-419.8" font-family="Times,serif" font-size="14.00">Production</text>
</g>
<g id="clust2" class="cluster"><title>cluster_1</title>
<polygon fill="none" stroke="blue" points="140,-176 140,-435 272,-435 272,-176 140,-176"/>
<text text-anchor="middle" x="206" y="-419.8" font-family="Times,serif" font-size="14.00">Testing Environment</text>
</g>
<!-- Master -->
<g id="node1" class="node"><title>Master</title>
<ellipse fill="white" stroke="white" cx="85" cy="-386" rx="35.6194" ry="18"/>
<text text-anchor="middle" x="85" y="-382.3" font-family="Times,serif" font-size="14.00">Master</text>
</g>
<!-- Jenkins -->
<g id="node2" class="node"><title>Jenkins</title>
<ellipse fill="white" stroke="white" cx="76" cy="-314" rx="37.0701" ry="18"/>
<text text-anchor="middle" x="76" y="-310.3" font-family="Times,serif" font-size="14.00">Jenkins</text>
</g>
<!-- Master&#45;&gt;Jenkins -->
<g id="edge1" class="edge"><title>Master&#45;&gt;Jenkins</title>
<path fill="none" stroke="black" d="M82.7753,-367.697C81.7835,-359.983 80.5916,-350.712 79.4859,-342.112"/>
<polygon fill="black" stroke="black" points="82.9459,-341.576 78.1991,-332.104 76.003,-342.469 82.9459,-341.576"/>
</g>
<!-- Selenium\nHeadless\nTesting -->
<g id="node3" class="node"><title>Selenium\nHeadless\nTesting</title>
<ellipse fill="white" stroke="white" cx="72" cy="-222" rx="48.125" ry="37.4533"/>
<text text-anchor="middle" x="72" y="-233.3" font-family="Times,serif" font-size="14.00">Selenium</text>
<text text-anchor="middle" x="72" y="-218.3" font-family="Times,serif" font-size="14.00">Headless</text>
<text text-anchor="middle" x="72" y="-203.3" font-family="Times,serif" font-size="14.00">Testing</text>
</g>
<!-- Jenkins&#45;&gt;Selenium\nHeadless\nTesting -->
<g id="edge2" class="edge"><title>Jenkins&#45;&gt;Selenium\nHeadless\nTesting</title>
<path fill="none" stroke="black" d="M75.2288,-295.647C74.8953,-288.145 74.4875,-278.968 74.0754,-269.696"/>
<polygon fill="black" stroke="black" points="77.5705,-269.506 73.6298,-259.671 70.5774,-269.817 77.5705,-269.506"/>
</g>
<!-- Deploy\nto\nProduction -->
<g id="node4" class="node"><title>Deploy\nto\nProduction</title>
<ellipse fill="white" stroke="white" cx="70" cy="-110" rx="53.6096" ry="37.4533"/>
<text text-anchor="middle" x="70" y="-121.3" font-family="Times,serif" font-size="14.00">Deploy</text>
<text text-anchor="middle" x="70" y="-106.3" font-family="Times,serif" font-size="14.00">to</text>
<text text-anchor="middle" x="70" y="-91.3" font-family="Times,serif" font-size="14.00">Production</text>
</g>
<!-- Selenium\nHeadless\nTesting&#45;&gt;Deploy\nto\nProduction -->
<g id="edge3" class="edge"><title>Selenium\nHeadless\nTesting&#45;&gt;Deploy\nto\nProduction</title>
<path fill="none" stroke="black" d="M71.334,-184.372C71.1805,-175.927 71.0151,-166.829 70.8547,-158.011"/>
<polygon fill="black" stroke="black" points="74.3512,-157.778 70.6699,-147.844 67.3523,-157.906 74.3512,-157.778"/>
</g>
<!-- end -->
<g id="node9" class="node"><title>end</title>
<polygon fill="none" stroke="black" points="140,-36 104,-36 104,-0 140,-0 140,-36"/>
<polyline fill="none" stroke="black" points="116,-36 104,-24 "/>
<polyline fill="none" stroke="black" points="104,-12 116,-0 "/>
<polyline fill="none" stroke="black" points="128,-0 140,-12 "/>
<polyline fill="none" stroke="black" points="140,-24 128,-36 "/>
<text text-anchor="middle" x="122" y="-14.3" font-family="Times,serif" font-size="14.00">end</text>
</g>
<!-- Deploy\nto\nProduction&#45;&gt;end -->
<g id="edge8" class="edge"><title>Deploy\nto\nProduction&#45;&gt;end</title>
<path fill="none" stroke="black" d="M89.659,-74.9749C95.3536,-65.1188 101.48,-54.5146 106.854,-45.215"/>
<polygon fill="black" stroke="black" points="109.959,-46.8359 111.932,-36.4262 103.898,-43.3339 109.959,-46.8359"/>
</g>
<!-- Devel -->
<g id="node5" class="node"><title>Devel</title>
<ellipse fill="lightgrey" stroke="black" cx="188" cy="-386" rx="31.2735" ry="18"/>
<text text-anchor="middle" x="188" y="-382.3" font-family="Times,serif" font-size="14.00">Devel</text>
</g>
<!-- Jenkins CI -->
<g id="node6" class="node"><title>Jenkins CI</title>
<ellipse fill="lightgrey" stroke="black" cx="196" cy="-314" rx="48.1437" ry="18"/>
<text text-anchor="middle" x="196" y="-310.3" font-family="Times,serif" font-size="14.00">Jenkins CI</text>
</g>
<!-- Devel&#45;&gt;Jenkins CI -->
<g id="edge4" class="edge"><title>Devel&#45;&gt;Jenkins CI</title>
<path fill="none" stroke="black" d="M189.978,-367.697C190.859,-359.983 191.919,-350.712 192.901,-342.112"/>
<polygon fill="black" stroke="black" points="196.387,-342.437 194.045,-332.104 189.432,-341.642 196.387,-342.437"/>
</g>
<!-- Selenium\nHeadless\nTest -->
<g id="node7" class="node"><title>Selenium\nHeadless\nTest</title>
<ellipse fill="lightgrey" stroke="black" cx="196" cy="-222" rx="48.125" ry="37.4533"/>
<text text-anchor="middle" x="196" y="-233.3" font-family="Times,serif" font-size="14.00">Selenium</text>
<text text-anchor="middle" x="196" y="-218.3" font-family="Times,serif" font-size="14.00">Headless</text>
<text text-anchor="middle" x="196" y="-203.3" font-family="Times,serif" font-size="14.00">Test</text>
</g>
<!-- Jenkins CI&#45;&gt;Selenium\nHeadless\nTest -->
<g id="edge5" class="edge"><title>Jenkins CI&#45;&gt;Selenium\nHeadless\nTest</title>
<path fill="none" stroke="black" d="M196,-295.647C196,-288.145 196,-278.968 196,-269.696"/>
<polygon fill="black" stroke="black" points="199.5,-269.671 196,-259.671 192.5,-269.671 199.5,-269.671"/>
</g>
<!-- Selenium\nHeadless\nTest&#45;&gt;end -->
<g id="edge9" class="edge"><title>Selenium\nHeadless\nTest&#45;&gt;end</title>
<path fill="none" stroke="black" d="M183.11,-185.814C168.525,-146 145.085,-82.0169 131.877,-45.9622"/>
<polygon fill="black" stroke="black" points="135.01,-44.3374 128.283,-36.1516 128.437,-46.7453 135.01,-44.3374"/>
</g>
<!-- Github -->
<g id="node8" class="node"><title>Github</title>
<polygon fill="none" stroke="black" points="139,-479 89.5488,-461 139,-443 188.451,-461 139,-479"/>
<polyline fill="none" stroke="black" points="100.825,-465.104 100.825,-456.896 "/>
<polyline fill="none" stroke="black" points="127.724,-447.104 150.276,-447.104 "/>
<polyline fill="none" stroke="black" points="177.175,-456.896 177.175,-465.104 "/>
<polyline fill="none" stroke="black" points="150.276,-474.896 127.724,-474.896 "/>
<text text-anchor="middle" x="139" y="-457.3" font-family="Times,serif" font-size="14.00">Github</text>
</g>
<!-- Github&#45;&gt;Master -->
<g id="edge6" class="edge"><title>Github&#45;&gt;Master</title>
<path fill="none" stroke="black" d="M128.843,-446.269C121.566,-436.432 111.571,-422.92 102.962,-411.282"/>
<polygon fill="black" stroke="black" points="105.758,-409.176 96.9969,-403.218 100.13,-413.339 105.758,-409.176"/>
</g>
<!-- Github&#45;&gt;Devel -->
<g id="edge7" class="edge"><title>Github&#45;&gt;Devel</title>
<path fill="none" stroke="black" d="M148.217,-446.269C154.8,-436.461 163.834,-423.002 171.63,-411.387"/>
<polygon fill="black" stroke="black" points="174.622,-413.21 177.289,-402.957 168.81,-409.309 174.622,-413.21"/>
</g>
</g>
</svg>
